PathFileType	4	(X/Y/Z)	..\data\2015035\dynamic\2015035_C4_03.trc
DataRate	CameraRate	NumFrames	NumMarkers	Units	OrigDataRate	OrigDataStartFrame	OrigNumFrames
100.000000	100.000000	4	52	mm	100.000000	111	179
Frame#	Time	L_IAS			L_IPS			R_IPS			R_IAS			L_FTC			L_FLE			L_FME			L_FAX			L_TTC			L_FAL			L_TAM			L_FCC			L_FM1			L_FM2			L_FM5			R_FTC			R_FLE			R_FME			R_FAX			R_TTC			R_FAL			R_TAM			R_FCC			R_FM1			R_FM2			R_FM5			CV7			TV10			SXS			SJN			L_SIA			L_SRS			L_SAA			L_SAE			L_HLE			L_HME			L_UOA			L_RSP			L_UHE			L_HM2			L_HM5			R_SIA			R_SRS			R_SAA			R_SAE			R_HLE			R_HME			R_UOA			R_RSP			R_UHE			R_HM2			R_HM5			
		X1	Y1	Z1	X2	Y2	Z2	X3	Y3	Z3	X4	Y4	Z4	X5	Y5	Z5	X6	Y6	Z6	X7	Y7	Z7	X8	Y8	Z8	X9	Y9	Z9	X10	Y10	Z10	X11	Y11	Z11	X12	Y12	Z12	X13	Y13	Z13	X14	Y14	Z14	X15	Y15	Z15	X16	Y16	Z16	X17	Y17	Z17	X18	Y18	Z18	X19	Y19	Z19	X20	Y20	Z20	X21	Y21	Z21	X22	Y22	Z22	X23	Y23	Z23	X24	Y24	Z24	X25	Y25	Z25	X26	Y26	Z26	X27	Y27	Z27	X28	Y28	Z28	X29	Y29	Z29	X30	Y30	Z30	X31	Y31	Z31	X32	Y32	Z32	X33	Y33	Z33	X34	Y34	Z34	X35	Y35	Z35	X36	Y36	Z36	X37	Y37	Z37	X38	Y38	Z38	X39	Y39	Z39	X40	Y40	Z40	X41	Y41	Z41	X42	Y42	Z42	X43	Y43	Z43	X44	Y44	Z44	X45	Y45	Z45	X46	Y46	Z46	X47	Y47	Z47	X48	Y48	Z48	X49	Y49	Z49	X50	Y50	Z50	X51	Y51	Z51	X52	Y52	Z52	

112	1.11	1041.755737304688	952.8279418945315	-323.0959472656251	845.5296020507815	971.5059814453127	-237.5077209472657	845.460388183594	970.2129516601565	-154.4592742919922	1029.882202148438	953.8394165039065	-54.64888381958009	957.6693115234377	878.0007934570315	-377.3220520019532	1107.629516601563	466.0437316894532	-361.9850769042969	1095.984741210938	465.3075561523439	-219.7864532470704	1115.257934570313	416.3941955566407	-363.7301940917969	1187.95068359375	416.6126403808595	-313.1060791015626	1246.452758789063	70.09170532226564	-338.2504272460938	1270.319702148438	102.2161407470703	-248.1419982910157	1225.682250976563	19.40500259399414	-279.4743041992188	1404.63525390625	93.63512420654298	-263.6552429199219	1394.631103515625	102.1742248535157	-318.5649108886719	1368.536743164063	65.12371826171876	-361.9631958007813	936.8657836914065	870.0505981445315	-8.920422554016115	858.4705810546877	460.311248779297	-63.39673995971681	864.648864746094	466.9471740722657	-187.9095916748047	822.602233886719	422.064178466797	-65.29537200927736	881.650573730469	385.5142822265626	-112.7754592895508	696.7337646484376	77.67391204833986	-105.8877182006836	745.8050537109376	92.42834472656251	-191.2521667480469	662.3316040039064	39.0641098022461	-156.6614685058594	855.158630371094	22.99946022033692	-169.682601928711	870.8220214843752	32.5974464416504	-109.8614883422852	797.3594970703127	19.97027587890625	-64.98208618164064	879.451599121094	1482.10107421875	-190.4855499267578	817.6780395507815	1192.171508789063	-184.2472381591797	1064.637329101563	1221.314086914063	-208.6831817626954	1014.496887207031	1388.560302734375	-205.1086730957032	788.2910766601565	1269.943603515625	-289.5819396972657	826.9797973632815	1418.193481445313	-277.0338134765626	886.9734497070315	1409.130737304688	-377.4084777832032	932.7125244140627	1405.868896484375	-392.6984863281251	849.902770996094	1107.8330078125	-470.2691955566407	811.7518310546877	1099.217407226563	-381.9596252441407	803.5103759765627	1087.026611328125	-437.5836791992189	917.2220458984377	841.6981201171877	-443.7957153320314	864.5100097656252	847.4738769531252	-501.0265502929689	933.5313110351565	753.3970947265626	-448.9768371582032	844.426940917969	769.173522949219	-503.3938293457032	829.0408935546877	1268.701782226563	-51.76704788208009	856.712097167969	1415.605590820313	-82.06024169921876	940.7385253906252	1396.853271484375	6.01625442504883	993.866394042969	1397.178466796875	5.649113655090333	1025.702026367188	1107.304077148438	104.4615325927735	972.4506835937502	1081.436889648438	29.38018226623536	987.908142089844	1064.0537109375	89.84690856933595	1218.912841796875	925.284362792969	21.99357604980469	1182.793701171875	893.6629638671877	84.26499176025392	1286.826171875	862.3204345703127	16.17796325683594	1210.355834960938	831.857360839844	84.6962356567383	
113	1.12	1053.74267578125	951.169372558594	-323.6059875488282	857.198425292969	969.7048339843752	-238.8683166503907	857.0159912109377	968.4705200195315	-155.891830444336	1040.984741210938	952.2784423828127	-54.9964942932129	969.8630981445315	876.1948852539065	-378.2338562011719	1119.572143554688	464.3558349609376	-361.7167053222657	1107.781494140625	463.9770507812501	-219.4941101074219	1127.531372070313	414.7579345703126	-363.3258666992188	1200.320556640625	415.7210388183595	-312.4176635742188	1260.78173828125	69.48414611816408	-336.7765808105469	1284.295776367188	101.8962326049805	-246.6799316406251	1240.131225585938	18.78055572509766	-277.9861450195313	1418.710083007813	94.01998901367189	-261.6955871582032	1408.725952148438	102.3763961791992	-316.6135864257813	1383.031005859375	65.14143371582033	-359.9077148437501	947.1979980468752	868.7969360351565	-9.902082443237306	866.5136718750002	459.8516540527345	-63.89378356933595	873.888854980469	465.958709716797	-188.5400085449219	830.1444091796877	421.8750610351564	-65.99838256835939	888.781433105469	384.3578186035157	-113.1004180908203	697.6693115234376	79.7196731567383	-105.8727569580078	747.2142333984376	93.65084075927736	-191.2663879394532	662.5853881835939	41.79433822631837	-156.7435150146485	855.5447387695315	23.04954147338868	-169.622787475586	871.1712646484377	32.55032348632813	-109.9015045166016	797.5546875000002	20.14693450927735	-65.14508056640626	890.5496215820315	1480.270263671875	-191.97021484375	828.9226074218752	1190.325927734375	-185.4320373535157	1076.203125	1219.491577148438	-209.8423309326172	1025.610473632813	1386.762939453125	-206.4907379150391	799.3823242187502	1267.657958984375	-290.4971923828126	837.954040527344	1416.168823242188	-278.2829589843751	897.6685791015627	1406.742553710938	-378.6875915527344	943.426208496094	1403.506713867188	-394.088348388672	860.3903808593752	1105.187744140625	-470.4209594726564	822.881286621094	1096.68359375	-381.9330139160157	814.2661743164065	1084.454345703125	-437.4076232910157	927.7552490234377	839.0914306640627	-444.1324157714845	874.6973266601565	844.8529052734377	-501.0562744140626	943.7015380859377	750.7792358398439	-449.2622985839845	854.5238037109377	766.5867309570314	-503.1985778808595	840.1058349609377	1266.882934570313	-53.0789260864258	867.999694824219	1414.463134765625	-82.8888397216797	951.923522949219	1395.232299804688	4.704267501831056	1005.083801269531	1395.5068359375	4.2147855758667	1036.774780273438	1105.560791015625	102.996826171875	983.6282348632815	1079.647216796875	27.85279846191407	999.0259399414065	1062.365844726563	88.29153442382814	1229.971557617188	923.328308105469	20.94492340087891	1193.988159179688	891.9499511718752	83.25129699707033	1297.75390625	860.315856933594	15.2639331817627	1221.223388671875	830.004821777344	83.7634735107422	
114	1.13	1065.83935546875	949.6997680664065	-324.2428588867188	868.9499511718752	968.156188964844	-240.2353668212891	868.7928466796877	966.8870849609377	-157.3229370117188	1052.333618164063	950.7661132812502	-55.46300888061525	982.2138671875002	874.7254638671877	-379.2706604003907	1132.051879882813	462.990447998047	-361.4956665039063	1120.117431640625	463.0869750976564	-219.3572082519532	1140.079711914063	413.3970947265626	-363.0115356445313	1212.834716796875	414.7778930664064	-311.7487792968751	1272.842163085938	68.45442199707033	-335.2358398437501	1296.11181640625	100.8781356811524	-245.1016845703126	1251.837524414063	18.01479721069336	-276.5081176757813	1430.482421875	92.68408203125001	-259.5296020507813	1420.614501953125	100.9993286132813	-314.4496459960938	1395.090576171875	63.8323211669922	-357.7148742675782	957.807800292969	867.5751953125002	-11.02880954742432	874.9830322265627	459.4884338378907	-64.4144744873047	883.4307250976565	464.9978637695314	-189.213607788086	838.1091308593752	421.7296752929689	-66.73483276367189	896.2860107421877	383.2309570312501	-113.5132141113282	698.6970214843751	82.07976531982423	-105.751335144043	748.7298583984376	95.09571075439455	-191.1709594726563	662.8670654296876	44.91848754882813	-156.6846160888672	855.991149902344	23.08174896240235	-169.5543975830078	871.5801391601565	32.5318832397461	-109.9454956054688	797.814147949219	20.34908485412598	-65.2873001098633	901.723327636719	1478.59326171875	-193.5996246337891	840.3508300781252	1188.607421875	-186.6010894775391	1087.880615234375	1217.840576171875	-211.064437866211	1036.81787109375	1385.165893554688	-207.9679107666016	810.612976074219	1265.480834960938	-291.5165100097657	849.030456542969	1414.253784179688	-279.6628112792969	908.4956665039065	1404.46435546875	-380.1002502441407	954.277038574219	1401.2744140625	-395.5943603515626	871.2886352539065	1102.59228515625	-470.6467895507814	834.5281372070315	1094.142700195313	-382.0144653320313	825.4397583007815	1081.909545898438	-437.3173828125001	938.8643188476565	836.582946777344	-444.5296936035157	885.4699707031252	842.301940917969	-501.1531372070314	954.5537109375002	748.2722167968751	-449.6138916015626	865.2554931640627	764.0590209960939	-503.0823364257814	851.3233642578127	1265.208374023438	-54.4247283935547	879.2960205078127	1413.45849609375	-83.92232513427736	963.1560058593752	1393.835327148438	3.274582386016847	1016.338745117188	1394.0537109375	2.690299987792969	1047.647094726563	1103.952270507813	101.3248748779297	994.6640625000002	1078.055297851563	26.09045028686524	1009.918334960938	1060.854125976563	86.50557708740236	1240.65087890625	921.1636962890627	19.93466949462891	1204.7421875	890.1649169921877	82.25544738769533	1308.179931640625	857.985534667969	14.46924877166748	1231.481323242188	827.9785766601565	82.88784790039064	
115	1.14	1078.050537109375	948.458435058594	-325.0290527343751	880.8194580078127	966.8718261718752	-241.6009216308594	880.8047485351565	965.4788208007815	-158.737289428711	1063.96240234375	949.3283691406252	-56.07905960083009	994.734802246094	873.6134033203127	-380.4299926757813	1145.052368164063	461.9610900878907	-361.3236083984376	1132.90673828125	462.6104736328126	-219.3792419433594	1152.924438476563	412.3294982910157	-362.8063659667969	1225.48486328125	413.8094787597657	-311.0811157226563	1282.86376953125	67.04893493652345	-333.7182312011719	1305.961059570313	99.20682525634768	-243.4823760986329	1261.018432617188	17.14165306091309	-275.1476440429688	1440.16357421875	89.68777465820314	-257.2125244140626	1430.535278320313	98.10099029541018	-312.1403198242188	1404.947387695313	61.25413131713869	-355.4740905761719	968.7518310546877	866.3948974609377	-12.29252719879151	883.9100341796877	459.2225952148439	-64.9335174560547	893.2841796875002	464.0682678222657	-189.8995208740235	846.5278320312502	421.6418457031251	-67.47312164306642	904.196228027344	382.1350402832032	-113.9767456054688	699.8529663085939	84.79742431640626	-105.5054550170899	750.3847656250001	96.78964996337893	-190.9303741455078	663.2308959960939	48.49336624145509	-156.4729156494141	856.466003417969	23.07303810119629	-169.4795532226563	872.0108642578127	32.53955459594727	-109.9902648925782	798.122009277344	20.57158088684082	-65.39859771728517	912.981872558594	1477.093139648438	-195.3755187988282	851.9703369140627	1187.038208007813	-187.7487945556641	1099.658203125	1216.387939453125	-212.3491973876954	1048.129028320313	1383.7900390625	-209.5484619140626	821.996032714844	1263.445556640625	-292.6401672363282	860.218933105469	1412.473266601563	-281.1765747070313	919.4696044921877	1402.325439453125	-381.6505126953126	965.2778930664065	1399.199096679688	-397.2180786132814	882.5994873046877	1100.079223632813	-470.9561462402345	846.681091308594	1091.633178710938	-382.2130432128907	837.0277099609377	1079.425903320313	-437.3244018554689	950.550720214844	834.2056274414065	-444.9895629882814	896.8280029296877	839.8500976562502	-501.3191528320314	966.1087646484377	745.9081420898439	-450.0381164550782	876.6241455078127	761.6182250976564	-503.0462646484376	862.7229614257815	1263.697631835938	-55.79286956787111	890.6035156250002	1412.566162109375	-85.20359039306642	974.452575683594	1392.686401367188	1.720603346824646	1027.645263671875	1392.847778320313	1.075040102005005	1058.304809570313	1102.512451171875	99.46629333496097	1005.550170898438	1076.695190429688	24.10638618469239	1020.567443847656	1059.550048828125	84.50566864013673	1250.92724609375	918.832702636719	18.96554756164551	1215.02490234375	888.3378906250002	81.27639007568361	1318.0908203125	855.375915527344	13.7963514328003	1241.115112304688	825.8171386718752	82.06577301025392	
